<svg fill="none" height="315" viewBox="0 0 309 315" width="309" xmlns="http://www.w3.org/2000/svg"><g stroke="#5ff" stroke-miterlimit="10" stroke-width="20"><path d="m10.6191 298.808c0-72 72-180 143.9999-216.0004 72 36.0004 144 144.0004 144 216.0004-144-72-144-72-287.9999 0z"/><path d="m190.898 46.6221c0 9.5462-3.792 18.7016-10.541 25.4527-6.749 6.751-15.904 10.5449-25.45 10.5473s-18.703-3.787-25.455-10.5346c-6.753-6.7477-10.549-15.9012-10.554-25.4474s3.782-18.7035 10.528-25.458c6.746-6.7544 15.899-10.5529 25.445-10.56 9.546-.0072 18.704 3.7776 25.461 10.5219 6.756 6.7443 10.556 15.8959 10.566 25.4421"/></g></svg>