<svg fill="none" height="310" viewBox="0 0 309 310" width="309" xmlns="http://www.w3.org/2000/svg"><g stroke="#ffc855" stroke-miterlimit="10" stroke-width="20"><path d="m10.0659 299.054v-72c0-38.191 15.1714-74.818 42.1766-101.824 27.0053-27.0049 63.6325-42.1763 101.8235-42.1763s74.818 15.1714 101.823 42.1763c27.006 27.006 42.177 63.633 42.177 101.824v72z"/><path d="m189.493 46.0449c0 9.5463-3.792 18.7017-10.541 25.4527-6.75 6.7511-15.904 10.5449-25.45 10.5473-9.547.0024-18.703-3.7869-25.456-10.5345-6.752-6.7477-10.549-15.9012-10.553-25.4475-.005-9.5462 3.782-18.7035 10.528-25.4579s15.898-10.5529 25.445-10.5601c9.546-.0071 18.704 3.7776 25.46 10.5219s10.557 15.8959 10.567 25.4422"/></g></svg>