<svg fill="none" height="376" viewBox="0 0 307 376" width="307" xmlns="http://www.w3.org/2000/svg"><g stroke="#a980fc" stroke-miterlimit="10" stroke-width="20"><path d="m10.0474 293.683c0-70.718 70.7179-176.795 141.4356-212.1537 70.718 35.3587 141.436 141.4357 141.436 212.1537-141.436-70.718-141.436-70.718-282.8716 0z"/><path d="m11.9873 370.095c16.3992-22.571 37.9077-40.941 62.7668-53.608 24.8592-12.666 52.3629-19.269 80.2629-19.269s55.404 6.603 80.263 19.269c24.86 12.667 46.368 31.037 62.767 53.608"/><path d="m186.842 46.1705c0 9.3762-3.724 18.3686-10.353 24.9994-6.63 6.6309-15.621 10.3572-24.997 10.3595-9.376.0024-18.37-3.7194-25.002-10.3469-6.633-6.6276-10.361-15.6181-10.366-24.9943-.005-9.3763 3.715-18.3705 10.341-25.0046 6.626-6.6342 15.615-10.365 24.991-10.3721 9.377-.007 18.372 3.7104 25.008 10.3346 6.635 6.6242 10.369 15.6128 10.378 24.989"/></g></svg>